PathFileType	4	(X/Y/Z)	/Users/mathieubourgeois/Desktop/Analyse/Traitement/Sujet_03/Data/Transformed_Sujet_03_velo_100.trc
DataRate	CameraRate	NumFrames	NumMarkers	Units	OrigDataRate	OrigDataStartFrame	OrigNumFrames
120.000000	120.000000	5	36	mm	120.000000	236	1890
Frame#	Time	RFHD			LFHD			RBHD			LBHD			C7			CLAV			RSHO			LSHO			STRN			T10			RBWT			LBWT			RFWT			LFWT			RKNI			LKNI			RKNE			LKNE			LANI			RANI			LANE			RANE			LTOE			RTOE			LHEE			RHEE			RHUM			LHUM			RRAD			LRAD			RWRA			RWRB			LWRA			LWRB			LCAR			RCAR			
		X1	Y1	Z1	X2	Y2	Z2	X3	Y3	Z3	X4	Y4	Z4	X5	Y5	Z5	X6	Y6	Z6	X7	Y7	Z7	X8	Y8	Z8	X9	Y9	Z9	X10	Y10	Z10	X11	Y11	Z11	X12	Y12	Z12	X13	Y13	Z13	X14	Y14	Z14	X15	Y15	Z15	X16	Y16	Z16	X17	Y17	Z17	X18	Y18	Z18	X19	Y19	Z19	X20	Y20	Z20	X21	Y21	Z21	X22	Y22	Z22	X23	Y23	Z23	X24	Y24	Z24	X25	Y25	Z25	X26	Y26	Z26	X27	Y27	Z27	X28	Y28	Z28	X29	Y29	Z29	X30	Y30	Z30	X31	Y31	Z31	X32	Y32	Z32	X33	Y33	Z33	X34	Y34	Z34	X35	Y35	Z35	X36	Y36	Z36	

237	1.966666666666667	155.7176971435547	1495.926025390625	113.5315017700195	142.2382202148438	1496.849609375	-40.19310760498055	79.55527496337889	1604.067138671875	124.3649139404296	63.5615234375	1622.504272460938	-22.65726852417001	-101.0421981811523	1551.690063476562	45.50136184692372	-65.68407440185547	1393.807006835938	46.7124366760253	-52.325798034668	1492.256225585938	217.8955535888671	-70.83898925781249	1513.856079101562	-134.6394348144532	-165.6689605712891	1256.522827148438	45.16833114624013	-322.3091430664062	1451.796020507812	37.90135955810533	-528.074462890625	1274.275390625	112.5017929077147	-531.6836547851562	1267.276977539062	-9.532960891723777	-377.733642578125	1206.113159179688	176.4680023193358	-384.3923645019531	1180.3310546875	-70.75968170166027	-44.90213012695314	932.7103881835938	124.9817733764648	-220.3166351318359	669.4353637695312	-28.947401046753	-48.72183990478518	966.0492553710938	239.3463592529296	-212.9626922607422	724.41162109375	-137.1659545898438	-321.798828125	308.9667358398438	-66.0436630249024	-263.5035400390625	634.8164672851562	121.5380859374999	-337.9215087890625	288.8801574707031	-155.0120391845704	-287.717529296875	620.09326171875	208.9044036865234	-175.7089538574219	162.2270812988281	-95.78888702392582	-119.930908203125	504.7074279785156	152.710464477539	-410.3671264648438	284.3414306640625	-117.2673263549805	-365.6103820800781	613.7692260742188	164.8180999755859	2.764929056167573	1185.621948242188	238.3385925292968	1.091934919357318	1195.58154296875	-147.0178375244141	52.10903930664059	1206.240478515625	300.5816650390624	47.68633270263675	1225.390014648438	-209.6911163330079	264.8013916015625	1047.6787109375	214.4156188964843	242.3131256103515	1025.813354492188	291.0289916992188	243.2263488769532	1065.562866210938	-128.7421264648438	213.597412109375	1036.24267578125	-198.5364990234375	307.8353576660156	1026.48486328125	-227.4581298828125	344.6538696289062	1013.87890625	303.7709350585938	
238	1.975	155.7555847167969	1496.483154296875	113.5595092773437	142.3627319335938	1497.151611328125	-40.18277740478523	79.21717071533202	1604.375732421875	124.1660079956054	63.29092407226562	1622.534790039062	-22.87965774536142	-100.9513244628906	1551.723388671875	45.47716522216786	-65.781982421875	1393.7890625	46.75543212890616	-51.88903427124026	1492.267700195312	217.7789916992187	-70.92362976074217	1513.703857421875	-134.4858856201173	-165.8703002929688	1256.719482421875	45.42364883422842	-322.3139038085938	1452.16259765625	38.25141143798815	-528.3983154296875	1275.042602539062	113.2348022460936	-532.0068969726562	1267.752197265625	-8.781268119812156	-378.0652160644531	1207.024658203125	177.1193695068358	-384.7210083007812	1180.825439453125	-70.06634521484386	-43.46677017211915	935.338134765625	124.4896850585937	-219.4637908935547	671.2110595703125	-29.24928855896003	-48.36449813842776	968.7757568359375	238.9376068115234	-212.2094421386718	725.7340698242188	-137.6100311279298	-334.0903015136719	314.4725036621094	-64.80844879150396	-249.8751678466797	629.5267333984375	119.4037017822265	-351.6360473632812	295.3583984375	-153.7270050048829	-275.6088562011719	613.6812133789062	207.5001068115234	-191.4636688232422	165.3401336669922	-95.74269104003911	-104.0482635498047	502.2337951660156	152.5412445068359	-424.6596374511719	293.3569030761719	-117.0866851806641	-353.5223083496094	605.1754150390625	161.3642425537109	3.147532463073701	1185.709838867188	238.5551452636718	1.203828573226947	1195.672119140625	-146.7536621093751	52.44621658325192	1206.380493164062	300.8936157226562	47.7676696777344	1225.447875976562	-209.4697265625001	264.9486389160156	1047.5595703125	214.6800842285156	242.4857635498047	1025.77294921875	291.3079528808594	243.3249206542969	1065.651733398438	-128.4238433837891	213.6544799804688	1036.2099609375	-198.1812438964844	307.9141235351562	1026.498291015625	-227.1304626464844	344.7943725585937	1013.826049804688	304.0905151367188	
239	1.983333333333333	155.7544555664062	1496.971435546875	113.4552841186523	142.4423828125	1497.37060546875	-40.28710937500008	78.85888671874999	1604.6318359375	123.8861618041991	62.9409294128418	1622.514770507812	-23.2232494354249	-100.9606323242188	1551.73291015625	45.35131072998036	-65.95345306396484	1393.713623046875	46.72784042358389	-51.45577239990237	1492.23779296875	217.5482482910155	-71.15915679931639	1513.548950195312	-134.4525299072266	-166.1767272949219	1256.862915039062	45.73530960082998	-322.3838500976562	1452.504028320312	38.57909011840807	-528.7327880859375	1275.7041015625	113.6163177490233	-532.3173217773438	1268.11572265625	-8.283906936645652	-378.5075378417969	1207.865966796875	177.8403167724608	-385.4476928710938	1181.928466796875	-69.05860137939464	-42.59896850585939	936.2899780273438	124.0184097290038	-217.4145355224609	673.5614624023438	-29.73826599121101	-48.45111846923831	969.97900390625	238.5839080810546	-209.4321746826172	727.5415649414062	-138.151580810547	-345.9533081054688	321.4076232910156	-63.42607498168952	-237.9137725830078	622.2693481445312	118.3580169677734	-364.7754821777344	302.71875	-152.0994262695313	-263.4978942871094	606.2822875976562	206.4673156738281	-207.0211334228516	169.8489074707031	-95.76403808593754	-88.54665374755861	498.6517333984375	152.055435180664	-437.5908203125	302.6908264160156	-114.8468399047852	-340.8450012207031	594.9016723632812	159.7469482421874	3.443182945251436	1185.789916992188	238.8728485107421	1.221302032470721	1195.706909179688	-146.4948883056641	52.76870727539059	1206.578002929688	301.1801452636718	47.79094314575198	1225.428833007812	-209.2200469970704	265.1044616699219	1047.441650390625	214.9853363037109	242.6483306884765	1025.761352539062	291.5788269042969	243.4157867431641	1065.746704101562	-128.1242370605469	213.7015533447266	1036.273681640625	-197.8918609619141	307.9827880859375	1026.533813476562	-226.8090362548828	345.1770324707031	1013.5068359375	304.1153564453125	
240	1.991666666666667	155.6659698486328	1497.401123046875	113.2328796386718	142.4301300048828	1497.5224609375	-40.45301818847664	78.41718292236327	1604.835205078125	123.431427001953	62.54848480224609	1622.401489257812	-23.69348526000986	-101.0473098754883	1551.693603515625	45.12377548217763	-66.16935729980469	1393.650634765625	46.6033172607421	-51.19311141967776	1492.075805664062	217.2057800292968	-71.51913452148436	1513.304321289062	-134.5132293701173	-166.4341430664062	1256.982421875	46.01584625244131	-322.5748901367188	1452.758666992188	38.83089828491197	-529.16943359375	1276.20068359375	113.8652343749999	-532.65478515625	1268.392456054688	-8.000951766967917	-378.9671936035156	1208.514282226562	178.5772705078124	-385.6332397460938	1182.189086914062	-68.36654663085949	-42.29325103759767	935.4237060546875	123.7182540893554	-214.3020172119141	676.5045776367188	-30.42943763732917	-48.95826721191409	969.6389770507812	238.3397827148437	-206.7061614990234	729.9204711914062	-138.9175567626954	-357.0314025878906	329.8057556152344	-61.9629859924317	-226.7369537353516	613.9778442382812	117.5320281982421	-377.2450561523438	311.5366821289062	-150.3586425781251	-251.4258117675782	596.9960327148438	205.823501586914	-222.1725158691406	175.3405303955078	-95.92246246337895	-73.19024658203126	493.2015991210938	151.7907104492187	-449.7522583007812	313.50390625	-112.4304656982423	-328.6001892089844	583.9134521484375	159.1773986816406	3.614755868911714	1185.869384765625	239.2495727539062	1.1453984975815	1195.694946289062	-146.1957397460938	53.06507873535153	1206.826538085938	301.4496765136718	47.68852233886722	1225.373168945312	-208.9671478271485	265.1587219238281	1047.322875976562	215.2635803222656	242.7608795166015	1025.784912109375	291.9069213867188	243.4564056396485	1065.821411132812	-127.8008041381836	213.7674560546875	1036.293334960938	-197.5579528808594	308.0163879394531	1026.591430664062	-226.4475708007813	345.2648925781249	1013.467712402344	304.4070739746094	
241	2	155.5260162353516	1497.807250976562	112.9372406005859	142.3446807861328	1497.587646484375	-40.73351287841805	77.93688201904295	1605.023071289062	122.9280395507812	62.09490585327148	1622.26953125	-24.30349540710458	-101.2486572265625	1551.628784179688	44.81194305419911	-66.48577880859375	1393.5732421875	46.42203521728506	-51.12794113159183	1491.895629882812	216.7341003417968	-72.00291442871092	1513.012939453125	-134.6284179687501	-166.7805786132812	1257.030029296875	46.26333999633779	-322.8417358398438	1452.941162109375	39.02719879150377	-529.5557250976562	1276.4765625	113.9111404418944	-532.9876098632812	1268.566162109375	-7.8646564483644	-379.4195861816406	1208.979858398438	179.249542236328	-385.8914184570312	1182.356201171875	-67.63897705078136	-42.3517189025879	932.6856689453125	123.6044082641601	-210.4131011962891	680.0427856445312	-31.22879028320319	-49.9062309265137	967.7643432617188	238.2346496582031	-203.2150268554687	732.8290405273438	-139.8361206054688	-367.2922668457031	339.3172302246094	-60.46099853515631	-211.1231536865235	604.049072265625	118.4995956420898	-388.8446044921875	321.6494750976562	-148.5442962646485	-239.55810546875	587	205.6164550781249	-236.6179351806641	181.9738922119141	-95.91175842285161	-59.23040008544924	485.5786743164062	151.1624298095703	-460.9613342285156	325.5360107421875	-109.9054412841798	-315.7815551757812	571.2666015625	160.5167236328124	3.650949478149385	1185.951782226562	239.6534576416015	1.02810204029085	1195.599853515625	-145.9211578369141	53.30466461181637	1207.08154296875	301.6671447753906	47.5074272155762	1225.237182617188	-208.7401733398438	265.1438903808594	1047.20849609375	215.4889068603515	242.7854919433593	1025.810424804688	292.2630310058594	243.4663238525391	1065.892700195312	-127.4981994628907	213.8360595703125	1036.372924804688	-197.2681427001953	308.0772094726562	1026.682861328125	-226.1413879394532	345.2525939941406	1013.43505859375	304.7072143554688	
